<?xml version="1.0" encoding="UTF-8"?>
<svg version="1.1" xmlns="http://www.w3.org/2000/svg" width="682" height="644">
<path d="M0 0 C1.2599176 -0.02212303 1.2599176 -0.02212303 2.54528809 -0.04469299 C5.30288567 -0.08893345 8.06027474 -0.11736073 10.81811523 -0.1418457 C11.76403975 -0.15124491 12.70996426 -0.16064411 13.68455315 -0.17032814 C18.68404995 -0.2177531 23.68344388 -0.25150134 28.68310547 -0.27539062 C33.84100568 -0.30318696 38.99680542 -0.3824845 44.15393162 -0.47293377 C48.12854629 -0.53272353 52.10265685 -0.55265325 56.07768059 -0.56189919 C57.9791899 -0.57347674 59.88067097 -0.60031296 61.78174019 -0.64282799 C76.64757544 -0.95579262 76.64757544 -0.95579262 80.7736969 2.32618713 C82.34337654 4.64330666 83.35482708 6.75097934 84.31420898 9.36987305 C84.9600293 10.41788086 85.60584961 11.46588867 86.27124023 12.5456543 C86.88354492 13.58077148 87.49584961 14.61588867 88.12670898 15.68237305 C92.21330926 22.55425395 96.35632632 29.39122926 100.51074219 36.22225952 C108.29373218 49.02073189 116.021548 61.85132303 123.71166992 74.70581055 C129.19203292 83.8638356 134.69665261 93.00604737 140.24707031 102.12182617 C147.17288633 113.49705715 154.0300436 124.90954981 160.81420898 136.36987305 C167.07456686 146.94347088 173.37707578 157.48972346 179.75170898 167.99487305 C180.28779785 168.87973389 180.28779785 168.87973389 180.8347168 169.7824707 C181.8458359 171.45058208 182.85927357 173.1172874 183.87280273 174.78393555 C184.44313232 175.72188965 185.01346191 176.65984375 185.60107422 177.6262207 C186.86241103 179.64630095 188.18070861 181.63108699 189.52929688 183.59399414 C191.31420898 186.36987305 191.31420898 186.36987305 191.31420898 188.36987305 C189.01639288 190.21851499 186.70441494 191.95997432 184.31420898 193.68237305 C178.46117329 197.97927309 172.73634176 202.38456313 167.12670898 206.99487305 C161.84836615 211.32485358 156.52254473 215.5693708 151.09545898 219.71118164 C147.24667521 222.648598 143.42915262 225.62272917 139.62670898 228.61987305 C134.20554072 232.89105019 128.76465598 237.13612575 123.31420898 241.36987305 C113.07517969 249.32709846 102.86395287 257.31443818 92.75170898 265.43237305 C87.59602998 269.57029214 82.39732935 273.64353447 77.14672852 277.66015625 C73.28323148 280.61739364 69.44828546 283.60868646 65.62670898 286.61987305 C60.20546233 290.89094972 54.76474826 295.13624376 49.31420898 299.36987305 C43.96930075 303.52197677 38.63182708 307.68287001 33.31420898 311.86987305 C27.99659036 316.0568765 22.65905688 320.21769107 17.31420898 324.36987305 C9.62624185 330.34301888 1.9629962 336.34667702 -5.68579102 342.36987305 C-9.08152564 345.04391466 -12.47851321 347.71627693 -15.88110352 350.3815918 C-18.73993888 352.62190701 -21.58510199 354.87887913 -24.42797852 357.1394043 C-26.05542984 358.42475409 -27.68303241 359.70991242 -29.31079102 360.99487305 C-30.08132812 361.61144775 -30.85186523 362.22802246 -31.64575195 362.86328125 C-32.37310547 363.43522217 -33.10045898 364.00716309 -33.84985352 364.59643555 C-34.49390137 365.10770996 -35.13794922 365.61898438 -35.80151367 366.14575195 C-37.78471422 367.43413852 -39.39896524 367.8553493 -41.68579102 368.36987305 C-41.64979366 325.48084144 -41.59285779 282.5918829 -41.50787006 239.70291898 C-41.4978527 234.6386162 -41.48800855 229.57431309 -41.47827148 224.51000977 C-41.47633011 223.50180508 -41.47438874 222.49360039 -41.47238854 221.45484404 C-41.44137383 205.13362368 -41.42438936 188.81241738 -41.41259679 172.4911731 C-41.4001825 155.74204092 -41.37267479 138.99298247 -41.33117795 122.24389684 C-41.30605056 111.91016035 -41.29267319 101.57654617 -41.29436144 91.2427787 C-41.29439122 84.15496058 -41.2797501 77.06726698 -41.25362673 69.97949739 C-41.23899003 65.89119273 -41.23076986 61.80314342 -41.23998833 57.71481705 C-41.2482945 53.9676081 -41.23806828 50.2209115 -41.2134544 46.47377841 C-41.20511157 44.48492994 -41.21628781 42.49602869 -41.22828937 40.50719893 C-41.11237398 28.38366167 -37.54818497 19.34529466 -29.02563477 10.68237305 C-20.67489709 3.07350045 -11.12228561 0.09922331 0 0 Z " fill="#80CC28" transform="translate(41.685791015625,-0.369873046875)"/>
<path d="M0 0 C1.8683095 0.84740512 3.70742121 1.76092187 5.51953125 2.72265625 C7.0519043 3.52993164 7.0519043 3.52993164 8.61523438 4.35351562 C9.67033203 4.91748047 10.72542969 5.48144531 11.8125 6.0625 C12.88693359 6.63033203 13.96136719 7.19816406 15.06835938 7.78320312 C17.71530675 9.18314418 20.35898899 10.58890112 23 12 C22.855625 13.02351562 22.71125 14.04703125 22.5625 15.1015625 C16.53815637 61.78620939 24.66205451 110.47716924 53 149 C53.53753906 149.73605469 54.07507813 150.47210938 54.62890625 151.23046875 C56.3690506 153.53249103 58.16893243 155.76949105 60 158 C60.41733398 158.51288574 60.83466797 159.02577148 61.26464844 159.55419922 C76.4081134 178.06940956 94.12499997 192.36067167 115 204 C115.60328125 204.3412793 116.2065625 204.68255859 116.828125 205.03417969 C135.39470004 215.39853381 158.22787718 223.50867613 179.6328125 224.2578125 C180.57938721 224.30244629 181.52596191 224.34708008 182.5012207 224.39306641 C184.32402268 224.46240095 186.14974821 224.4807953 187.97338867 224.43896484 C190.71806044 224.53968185 192.52980171 224.78358874 195 226 C197.8084356 229.65015224 199.31814806 233.7389657 201 238 C201.55075172 239.27408181 202.10765839 240.54551772 202.67016602 241.81445312 C204.5315822 246.02495315 206.32977682 250.26094529 208.125 254.5 C208.777737 256.03456814 209.43081795 257.56899002 210.08422852 259.10327148 C211.07955597 261.44065161 212.07456625 263.77816157 213.06806946 266.11631775 C215.24266796 271.23235834 217.43659381 276.33967349 219.64453125 281.44140625 C220.20758045 282.74476535 220.77057036 284.04815007 221.33349609 285.3515625 C222.38405485 287.78395226 223.4383311 290.21461569 224.49462891 292.64453125 C224.9591748 293.7221875 225.4237207 294.79984375 225.90234375 295.91015625 C226.30960693 296.84996338 226.71687012 297.78977051 227.13647461 298.75805664 C228 301 228 301 228 303 C207.73743985 303.30424795 187.47534576 303.53319919 167.21097183 303.67355824 C157.80083929 303.74047482 148.39212929 303.83162991 138.98291016 303.98071289 C130.77767539 304.11065707 122.57347107 304.1942418 114.3672359 304.22315043 C110.02503231 304.24004023 105.68577532 304.2794587 101.34452057 304.37449074 C97.24936798 304.46340079 93.15834493 304.48982735 89.0623188 304.47039986 C87.56745165 304.47394785 86.07243237 304.49943431 84.57840538 304.54967117 C78.18918743 304.75379176 72.49519483 304.68539929 67.53638458 300.18752098 C64.90633365 297.48682674 62.56686085 294.60407521 60.28087378 291.6102699 C58.34255615 289.17348449 56.14407868 287.02720855 53.91796875 284.85546875 C53.13099609 284.07623047 52.34402344 283.29699219 51.53320312 282.49414062 C50.75912109 281.73294922 49.98503906 280.97175781 49.1875 280.1875 C40.42014219 271.56258504 40.42014219 271.56258504 36.55078125 267.05078125 C32.29987984 262.1023464 27.64476993 257.57544501 23 253 C13.37089205 243.51461008 13.37089205 243.51461008 9.53125 239.03125 C5.13857072 233.90817206 0.30278441 229.23485253 -4.5 224.5 C-9.93098171 219.14583557 -15.25531363 213.79913792 -20.21679688 208.00585938 C-23.78805311 203.98868506 -27.67063459 200.26886991 -31.5 196.5 C-36.59984131 191.48072491 -41.55183483 186.43954375 -46.21289062 181.00976562 C-49.63000884 177.1669081 -53.33458665 173.60391313 -57 170 C-61.93933826 165.14353654 -66.71151141 160.24978224 -71.2265625 154.99609375 C-74.48190121 151.33204512 -78.00451948 147.93294957 -81.5 144.5 C-85.62324574 140.45051536 -89.700117 136.41641052 -93.46875 132.03125 C-97.41187392 127.44821339 -101.69110398 123.23659911 -106 119 C-111.57552233 113.51802671 -116.93515631 107.95882728 -122 102 C-123.14581042 100.66664698 -124.29164275 99.33331278 -125.4375 98 C-126.283125 97.01 -127.12875 96.02 -128 95 C-122.33051665 89.74570609 -116.42965452 84.99097106 -110.21484375 80.3984375 C-106.88593836 77.93099953 -103.6265023 75.38069874 -100.375 72.8125 C-94.93474297 68.51812238 -89.47432548 64.25087699 -84 60 C-78.54936578 55.76649212 -73.10882505 51.52097617 -67.6875 47.25 C-62.77945101 43.384071 -57.84051617 39.56109601 -52.88232422 35.75976562 C-49.00468022 32.782894 -45.15295237 29.77466463 -41.3125 26.75 C-33.57830236 20.66319412 -25.8349683 14.58903206 -18.04003906 8.58007812 C-16.21213519 7.16430576 -14.39789883 5.73293335 -12.5859375 4.296875 C-11.15121094 3.19085938 -11.15121094 3.19085938 -9.6875 2.0625 C-8.48673828 1.12083984 -8.48673828 1.12083984 -7.26171875 0.16015625 C-4.30356129 -1.35724058 -3.17394101 -0.87187363 0 0 Z " fill="#7FCC28" transform="translate(262,219)"/>
<path d="M0 0 C2.0200683 0.01038158 4.04016294 0.01644918 6.06025696 0.01841736 C10.29021721 0.03376177 14.51760465 0.08515397 18.74682617 0.1652832 C24.13552947 0.26679612 29.52206786 0.30370901 34.91163921 0.31638432 C39.08402043 0.32920988 43.2559675 0.36425217 47.42814064 0.40701103 C49.4129875 0.42712027 51.3978769 0.44343636 53.3827877 0.45570564 C69.41534852 0.58850746 83.21315688 1.76410931 95.55078125 13.21484375 C104.12030779 22.96150306 106.67787778 33.46270641 106.67382908 46.26065731 C106.67498292 46.9373302 106.67613677 47.61400309 106.67732558 48.31118122 C106.6799653 50.57091821 106.67549199 52.83058347 106.67103577 55.09031677 C106.67147201 56.72977927 106.67234789 58.36924171 106.67362493 60.00870377 C106.67585946 64.50792048 106.67186284 69.00711336 106.66684687 73.50632703 C106.66252763 78.3603734 106.66398984 83.21441843 106.66474915 88.06846619 C106.66527344 96.47649389 106.66213645 104.88451384 106.65651131 113.2925396 C106.64838359 125.44912764 106.64577978 137.60571194 106.64452332 149.76230241 C106.6423348 169.48566141 106.63568013 189.20901629 106.6262207 208.93237305 C106.61704141 228.09155252 106.6099631 247.25073088 106.60571289 266.40991211 C106.60545017 267.59092329 106.60518744 268.77193448 106.60491676 269.98873388 C106.60361172 275.91353165 106.60234801 281.83832943 106.60110486 287.76312721 C106.59073848 336.91370225 106.5731256 386.0642728 106.55078125 435.21484375 C105.45048485 434.28170569 104.35163456 433.34686235 103.25337219 432.41133118 C102.64129064 431.89092916 102.02920908 431.37052713 101.3985796 430.83435535 C98.47635175 428.27315493 95.75700574 425.52483001 93.03125 422.7578125 C92.44660477 422.16938065 91.86195953 421.58094879 91.25959778 420.97468567 C89.4166781 419.11967935 87.57708156 417.26143294 85.73828125 415.40234375 C83.29713106 412.93464214 80.85271017 410.47024858 78.40625 408.0078125 C77.84793991 407.44120407 77.28962982 406.87459564 76.71440125 406.29081726 C73.90749685 403.39215518 73.90749685 403.39215518 70.55078125 401.21484375 C70.55078125 400.55484375 70.55078125 399.89484375 70.55078125 399.21484375 C69.95694641 398.94632599 69.36311157 398.67780823 68.75128174 398.40115356 C66.5375781 397.20772581 65.10571689 396.01177037 63.34277344 394.23388672 C62.44229279 393.33317947 62.44229279 393.33317947 61.52362061 392.41427612 C60.88805237 391.76838531 60.25248413 391.12249451 59.59765625 390.45703125 C58.93743469 389.7939798 58.27721313 389.13092834 57.59698486 388.44778442 C55.49350301 386.33312543 53.39708983 384.21161163 51.30078125 382.08984375 C49.87415864 380.65318818 48.44708053 379.21698477 47.01953125 377.78125 C43.52464464 374.26433571 40.03608063 370.74125828 36.55078125 367.21484375 C37.74000213 364.11496144 39.01943353 361.22128677 40.6875 358.3515625 C41.09645508 357.63814697 41.50541016 356.92473145 41.92675781 356.18969727 C42.35956055 355.43487061 42.79236328 354.68004395 43.23828125 353.90234375 C64.32023243 316.38574246 72.67028803 271.63491172 63.55078125 229.21484375 C63.38449219 228.4352832 63.21820312 227.65572266 63.046875 226.85253906 C57.45414286 201.61274603 46.35607877 177.65670343 30.55078125 157.21484375 C29.86886719 156.30992187 29.18695312 155.405 28.484375 154.47265625 C2.3366577 121.03136316 -34.80501996 99.16890559 -76.22314453 90.6875 C-79.65703282 89.95839189 -83.04919068 89.087245 -86.44921875 88.21484375 C-86.07990234 87.72290527 -85.71058594 87.2309668 -85.33007812 86.72412109 C-82.79196486 83.34185135 -80.25604338 79.95805183 -77.73046875 76.56640625 C-71.79961544 68.6132849 -65.77136694 60.74506779 -59.66210938 52.92822266 C-55.36932134 47.42528398 -51.1655326 41.86232167 -46.99707031 36.26489258 C-42.59084163 30.36479135 -38.0729598 24.55466814 -33.51953125 18.76757812 C-32.70355469 17.72633789 -32.70355469 17.72633789 -31.87109375 16.6640625 C-31.33303604 16.00416321 -30.79497833 15.34426392 -30.24061584 14.66436768 C-28.36470544 12.25056311 -28.36470544 12.25056311 -27.08396912 9.41680908 C-20.95017656 -1.9252871 -11.43914399 -0.27200305 0 0 Z " fill="#7FCB28" transform="translate(575.44921875,-1.21484375)"/>
<path d="M0 0 C112.2 0 224.4 0 340 0 C338.47694125 3.80764687 337.64045963 5.7585667 335.234375 8.7578125 C334.40437988 9.80545776 334.40437988 9.80545776 333.55761719 10.87426758 C332.96110352 11.61700928 332.36458984 12.35975098 331.75 13.125 C326.62620601 19.60168343 321.62328498 26.14517396 316.75 32.8125 C312.0749984 39.19960995 307.33192859 45.51597453 302.484375 51.7734375 C300.17814836 54.75741996 297.90607983 57.76603756 295.64672852 60.78564453 C294.63324342 62.13554879 293.61288522 63.48032042 292.58569336 64.81982422 C289.94916028 68.27873531 287.49865456 71.75129657 285.23828125 75.46875 C278.10065497 86.80868049 278.10065497 86.80868049 271.7578125 88.45703125 C267.72713542 89.15677489 263.66770957 89.41124903 259.59130859 89.70996094 C234.15026188 92.55751732 207.98236454 106.635726 188 122 C187.0925 122.68320313 186.185 123.36640625 185.25 124.0703125 C161.45788138 142.69331011 145.66992284 166.44353098 132 193 C126.9202309 191.45921696 122.28801633 189.38155996 117.5625 187 C116.83740234 186.66355469 116.11230469 186.32710937 115.36523438 185.98046875 C108.89327614 182.6892483 105.71160812 178.11901202 102 172 C101.06136108 170.45481689 101.06136108 170.45481689 100.10375977 168.87841797 C98.40277756 166.02462944 96.72565259 163.15993004 95.06512451 160.28259277 C93.21182573 157.0721623 91.34316224 153.87067771 89.4765625 150.66796875 C89.09923981 150.01974152 88.72191711 149.37151428 88.3331604 148.7036438 C84.73113218 142.52193272 81.06383568 136.38028627 77.375 130.25 C76.7668042 129.23905273 76.1586084 128.22810547 75.53198242 127.18652344 C74.30704025 125.15161486 73.08169978 123.11694598 71.85595703 121.08251953 C68.66824507 115.78811658 65.49100204 110.4874353 62.3125 105.1875 C61.05864116 103.0976278 59.80473584 101.0077835 58.55078125 98.91796875 C56.33984375 95.23307292 54.12890625 91.54817708 51.91796875 87.86328125 C51.43320068 87.05536133 50.94843262 86.24744141 50.44897461 85.41503906 C49.48224477 83.80376837 48.5156108 82.19244015 47.54907227 80.58105469 C44.86312716 76.10343931 42.17496669 71.62716875 39.484375 67.15234375 C32.21533151 55.05775375 24.98724993 42.93987814 17.80566406 30.79321289 C13.06393111 22.77790107 8.28412498 14.78637173 3.45239258 6.82495117 C2.99372803 6.06545166 2.53506348 5.30595215 2.0625 4.5234375 C1.66160156 3.86263184 1.26070312 3.20182617 0.84765625 2.52099609 C0 1 0 1 0 0 Z " fill="#7FCB28" transform="translate(165,0)"/>
<path d="M0 0 C3.83834246 1.58184202 6.26666848 4.02288989 9.17578125 6.9453125 C9.66402878 7.43401825 10.15227631 7.922724 10.65531921 8.42623901 C11.68722198 9.46115667 12.71669944 10.49849751 13.74389648 11.53808594 C15.29174892 13.10400669 16.8472635 14.66196358 18.40429688 16.21875 C23.19218906 21.02428024 27.8464368 25.8912354 32.2590332 31.04736328 C36.56351777 35.87519494 41.31263828 40.30479178 45.94335938 44.81640625 C46.72388672 45.58597656 47.50441406 46.35554688 48.30859375 47.1484375 C49.01814209 47.84114746 49.72769043 48.53385742 50.45874023 49.24755859 C52 51 52 51 52 53 C52.66 53 53.32 53 54 53 C55.41015625 54.43359375 55.41015625 54.43359375 57.0625 56.4375 C61.12974522 61.22051302 65.5254604 65.60053657 70 70 C78.56563834 78.42191957 78.56563834 78.42191957 82.46875 82.96875 C86.56202757 87.73166514 91.02646937 92.09714126 95.5 96.5 C104.59825598 105.45452366 104.59825598 105.45452366 108.40625 109.90625 C112.97229652 115.22534949 118.01196231 120.08216928 123 125 C128.60776368 130.52883403 134.14305806 136.05444407 139.265625 142.04296875 C142.65951574 145.87256168 146.35274241 149.413938 150 153 C154.98037395 157.89681063 159.79978252 162.83089585 164.35205078 168.12939453 C166.91281733 171.03614909 169.66495278 173.73452737 172.4375 176.4375 C174.31622789 178.27144296 176.16733147 180.11918255 178 182 C178 182.33 178 182.66 178 183 C146.7379432 183.09134451 115.47592185 183.16208719 84.21376319 183.20426132 C80.51897342 183.20926386 76.82418391 183.21444117 73.12939453 183.21972656 C72.02609335 183.22130043 72.02609335 183.22130043 70.90050325 183.22290608 C59.00692684 183.24028864 47.11342815 183.2718144 35.21989778 183.30861118 C23.00667066 183.34608057 10.7934841 183.3682485 -1.41979814 183.37635398 C-8.94981998 183.38182936 -16.47962211 183.39909264 -24.00957629 183.43166587 C-29.79360139 183.45540471 -35.57748721 183.45780475 -41.36155128 183.45243073 C-43.72698376 183.45352787 -46.09242483 183.46144033 -48.45780754 183.4768219 C-77.99426973 183.65941113 -77.99426973 183.65941113 -90 172 C-100.07006264 161.43043028 -101.70433952 149.60663742 -102.13671875 135.59765625 C-102.16280527 134.82837736 -102.18889179 134.05909847 -102.21576881 133.2665081 C-102.35059802 129.20056308 -102.46123238 125.13476132 -102.55297852 121.06762695 C-102.6325243 117.72939368 -102.75774121 114.39776343 -102.92407227 111.06274414 C-104.35725403 81.88102327 -104.35725403 81.88102327 -98.88696289 75.2824707 C-95.83719827 72.50767163 -92.53701399 70.56762141 -88.80160522 68.85122681 C-86.47241561 67.75072565 -84.58580445 66.28673127 -82.59765625 64.66015625 C-81.42060887 63.79245284 -80.24225965 62.92651211 -79.0625 62.0625 C-72.89668481 57.49432953 -66.9267827 52.72877323 -61.00024414 47.85571289 C-55.77994226 43.58351417 -50.42093407 39.53229299 -45 35.51953125 C-39.54165417 31.45775437 -34.27312552 27.19283277 -29.01977539 22.87084961 C-23.63025932 18.45859356 -18.10439534 14.25474412 -12.49023438 10.1328125 C-8.15783902 6.93670893 -4.0423272 3.55578676 0 0 Z " fill="#80CC28" transform="translate(102,339)"/>
<path d="M0 0 C0.8441748 0.20399414 1.68834961 0.40798828 2.55810547 0.61816406 C14.56051431 3.61386066 25.90196195 7.54029541 37 13 C37.63099609 13.30663574 38.26199219 13.61327148 38.91210938 13.92919922 C75.77167884 32.04900286 104.48590082 64.27470996 118.40722656 102.90356445 C132.08257775 143.17455715 130.7089682 187.00066565 112.38671875 225.69140625 C107.20118415 236.12361252 101.27335206 245.8988605 94 255 C93.54012695 255.5779834 93.08025391 256.1559668 92.60644531 256.75146484 C76.45171319 276.81636401 50.32045236 301.72365924 24 306 C26.49073316 313.60406181 29.10291555 321.15922397 31.78100586 328.69873047 C33.63242036 333.92355958 35.40135851 339.17159034 37.1328125 344.4375 C37.88913426 346.67239673 38.70328966 348.86575604 39.5625 351.0625 C40.74140922 354.12386105 41.61164745 357.20035177 42.4375 360.375 C43.62483812 364.87699037 45.17898863 369.05629661 46.96875 373.34765625 C48.11667853 376.30009364 49.03366749 379.27664321 49.9375 382.3125 C51.63215096 387.98357605 53.67889503 393.44491596 55.84765625 398.94921875 C56.85539559 401.61716595 57.71648702 404.25991789 58.5 407 C59.958408 412.10026112 61.86725701 416.9913168 63.81640625 421.921875 C64.97109604 424.92483062 66.00266935 427.94151933 67 431 C67.37898438 432.13695312 67.75796875 433.27390625 68.1484375 434.4453125 C68.55320312 435.65960937 68.95796875 436.87390625 69.375 438.125 C69.59414063 438.78097168 69.81328125 439.43694336 70.0390625 440.11279297 C71.04813661 443.13488193 72.0515888 446.15825736 73.0390625 449.1875 C74.72237343 454.33323097 76.52028811 459.39768468 78.5 464.4375 C80.59867961 469.80576887 82.31978267 475.21700339 83.96484375 480.73828125 C85.38794105 485.22238027 87.12078301 489.56570044 88.84375 493.94140625 C90.16394931 497.43369024 91.2368612 500.94622563 92.23046875 504.54296875 C92.97295909 507.07198901 92.97295909 507.07198901 94.17578125 509.67578125 C96.87546855 515.89297644 97.47151462 520.05178774 95.25390625 526.546875 C92.84368658 531.26219573 89.38339412 533.80419364 84.734375 536.13671875 C81.27170331 537.22993367 78.25292922 537.26471777 74.625 537.25 C73.35914063 537.25515625 72.09328125 537.2603125 70.7890625 537.265625 C62.60428778 536.69184698 56.56620641 534.01020342 51 528 C49.09757809 524.47095108 48.05146019 520.85701512 47 517 C46.33796844 514.83191257 45.67118286 512.66527191 45 510.5 C44.67 509.406875 44.34 508.31375 44 507.1875 C43.07973749 504.25416326 42.07191149 501.38076213 41 498.5 C39.57144019 494.65728485 38.30393098 490.80152219 37.125 486.875 C35.56830632 481.70849301 33.82838215 476.63678684 32 471.5625 C30.10864252 466.3123829 28.40654349 461.07597532 26.9375 455.6875 C25.729817 451.29273657 24.31648926 447.17958166 22.5 443 C20.17584384 437.65018933 18.56808051 432.26511703 17.03125 426.64453125 C15.25121746 420.35373445 13.10318093 414.18859309 11 408 C10.31098587 405.93800533 9.62338594 403.87553732 8.9375 401.8125 C8.61652344 400.84957031 8.29554688 399.88664062 7.96484375 398.89453125 C-3 366 -3 366 -4.00390625 362.984375 C-4.65441239 361.03540759 -5.30792639 359.08744081 -5.96484375 357.140625 C-7.41801906 352.82195139 -8.85438082 348.5018958 -10.1875 344.14453125 C-12.54204942 336.45102713 -15.07085239 328.94428608 -18.08203125 321.4765625 C-19 319 -19 319 -19 317 C-19.90016846 317.01571045 -20.80033691 317.0314209 -21.7277832 317.04760742 C-56.28767859 317.57067372 -56.28767859 317.57067372 -71 314 C-72.26626221 313.69400879 -72.26626221 313.69400879 -73.55810547 313.38183594 C-85.56051431 310.38613934 -96.90196195 306.45970459 -108 301 C-108.63099609 300.69336426 -109.26199219 300.38672852 -109.91210938 300.07080078 C-146.77167884 281.95099714 -175.48590082 249.72529004 -189.40722656 211.09643555 C-203.08257775 170.82544285 -201.7089682 126.99933435 -183.38671875 88.30859375 C-178.20118415 77.87638748 -172.27335206 68.1011395 -165 59 C-164.54012695 58.4220166 -164.08025391 57.8440332 -163.60644531 57.24853516 C-136.57814165 23.67817424 -97.36409865 2.17124226 -54.45874023 -2.81689453 C-36.5673632 -4.14928782 -17.47849539 -4.24202289 0 0 Z M-72 21 C-72.77166504 21.19835449 -73.54333008 21.39670898 -74.33837891 21.60107422 C-108.86926877 30.91752164 -138.78685925 54.62796165 -156.85986328 85.25585938 C-168.27343541 105.34209144 -174.95630299 127.90820374 -176 151 C-176.04125 151.83015625 -176.0825 152.6603125 -176.125 153.515625 C-177.07117842 192.07239559 -162.27907794 228.19879488 -136 256 C-135.25363281 256.81082031 -134.50726563 257.62164062 -133.73828125 258.45703125 C-111.44621909 281.85448493 -77.34360534 298.13460225 -44.86254883 299.0925293 C-41.17861492 299.13456298 -37.49664523 299.13633002 -33.8125 299.125 C-32.57435547 299.12886719 -31.33621094 299.13273437 -30.06054688 299.13671875 C-21.9957383 299.1282695 -14.03039834 298.74100786 -6 298 C-5.7525 299.258125 -5.505 300.51625 -5.25 301.8125 C-4.24061316 306.37606583 -2.72101128 310.61138128 -1.0703125 314.9765625 C0.10816514 318.30554679 1.06214996 321.65817818 2 325.0625 C3.37449301 330.00745338 5.01132228 334.65189042 7 339.375 C8.64707217 343.69856445 9.77056073 348.16828264 11 352.625 C11.85695485 355.51722262 12.83118638 358.22406766 14 361 C15.59362894 364.79876666 16.78140016 368.5902923 17.875 372.5625 C19.36633117 377.97004333 21.09116892 383.22634902 23 388.5 C25.31686132 394.9009425 27.26295541 401.30635455 29.0703125 407.87109375 C30.14632402 411.49246026 31.53582944 414.89759492 33 418.375 C34.64707217 422.69856445 35.77056073 427.16828264 37 431.625 C38.08765804 435.29584587 39.46870537 438.73894096 40.95288086 442.26171875 C42.0784985 445.20527844 42.92416347 448.14730429 43.75390625 451.1875 C45.98185245 459.09717294 48.53694101 466.87962751 51.15405273 474.66796875 C51.93624128 476.99625327 52.71360166 479.32610709 53.49023438 481.65625 C55.84046474 488.68918177 58.23362054 495.70041619 60.75 502.67578125 C62.73844828 508.19124912 64.39518224 513.69351518 65.91015625 519.35546875 C67.14751004 522.35793654 68.17837445 523.44324108 71 525 C74.50610679 524.7434556 76.0278901 523.9814066 79 522 C80.42741986 517.2441888 79.74614022 514.42286485 77.8125 509.9375 C76.08116504 505.71796234 74.4852654 501.56015099 73.1875 497.1875 C71.24138232 490.68984996 69.13577086 484.25020455 67 477.8125 C66.66766357 476.80276123 66.33532715 475.79302246 65.99291992 474.75268555 C64.12727289 469.14748735 62.09729976 463.65620021 59.86621094 458.18676758 C58.79286056 455.47707217 57.93360633 452.73681812 57.125 449.9375 C55.56007825 444.71287937 53.83186314 439.57264811 52 434.4375 C49.57945349 427.6521324 47.25561033 420.84220411 45 414 C41.90842954 404.64062393 38.71442183 395.31767144 35.5 386 C34.55138449 383.25024028 33.60336716 380.50027618 32.65625 377.75 C32.42780396 377.08698883 32.19935791 376.42397766 31.96398926 375.74087524 C30.55264155 371.63555873 29.17321189 367.52078183 27.8125 363.3984375 C26.49286516 359.41937562 25.07581264 355.51129469 23.5 351.625 C21.26807831 345.92575041 19.58570264 340.17102044 17.96484375 334.2734375 C16.87464712 330.57471371 15.48507695 327.09451233 13.99609375 323.54296875 C12.44909315 319.59356721 11.29707256 315.53408915 10.08203125 311.47265625 C8.24609502 305.5804277 6.12001896 299.79529773 4 294 C4.6084375 293.86464844 5.216875 293.72929687 5.84375 293.58984375 C27.59387482 288.24826898 46.77852438 276.16819913 63 261 C63.96421875 260.11699219 64.9284375 259.23398437 65.921875 258.32421875 C92.35586719 233.12231941 106.31073933 197.52725339 108.18359375 161.46484375 C108.91419771 124.03213484 95.46013281 87.72169819 69.5625 60.6640625 C68.716875 59.78492188 67.87125 58.90578125 67 58 C66.071875 56.95972656 66.071875 56.95972656 65.125 55.8984375 C43.84335454 32.81165247 8.01275372 18.27461687 -23.08520508 16.85961914 C-39.76208847 16.39114767 -55.75517994 16.80936392 -72 21 Z " fill="#7EC928" transform="translate(497,107)"/>
<path d="M0 0 C0.47050781 0.40992188 0.94101562 0.81984375 1.42578125 1.2421875 C2.04839844 1.78101563 2.67101562 2.31984375 3.3125 2.875 C4.23482422 3.67550781 4.23482422 3.67550781 5.17578125 4.4921875 C7.13498212 6.1640447 7.13498212 6.1640447 10 8 C10 8.66 10 9.32 10 10 C10.53965393 10.21400955 11.07930786 10.4280191 11.63531494 10.64851379 C14.85486058 12.48857765 17.25542024 15.00192234 19.83496094 17.6237793 C20.40790894 18.19804153 20.98085693 18.77230377 21.57116699 19.3639679 C23.46354155 21.26283034 25.34883779 23.16856891 27.234375 25.07421875 C28.55419629 26.40031503 29.87453712 27.72589443 31.19537354 29.05097961 C34.67520014 32.54411236 38.14942681 36.04275755 41.62207031 39.54302979 C47.16443853 45.12847917 52.71340095 50.7073553 58.26581573 56.28281593 C60.19574986 58.22289066 62.12218333 60.16639051 64.04827881 62.11027527 C69.85962524 67.96149243 75.68331195 73.68801426 82 79 C84.3944698 81.10628385 86.74150306 83.25066473 89.0625 85.4375 C89.65482422 85.95892578 90.24714844 86.48035156 90.85742188 87.01757812 C94.87906543 90.86131429 94.87906543 90.86131429 95.21435547 94.01831055 C94.24569832 103.26389382 89.23156577 110.6864881 82.609375 116.953125 C75.20229319 122.76347061 67.31816115 126.13288876 57.94628906 126.11352539 C56.72532532 126.11344986 55.50436157 126.11337433 54.24639893 126.11329651 C52.93274353 126.10813522 51.61908813 126.10297394 50.265625 126.09765625 C48.9037074 126.09579021 47.54178912 126.09436718 46.17987061 126.09336853 C42.60258111 126.08955803 39.02533248 126.07974032 35.44805908 126.06866455 C31.79480543 126.05841884 28.14154514 126.05386415 24.48828125 126.04882812 C17.32550224 126.03811669 10.16275686 126.02105794 3 126 C-5.18712684 112.06478511 -12.30544762 97.59465146 -19.47839355 83.12225342 C-22.00466509 78.02614286 -24.53595023 72.93252471 -27.07042313 67.84048843 C-27.68495697 66.60565932 -28.29915411 65.37066258 -28.91300583 64.13549423 C-33.20622891 55.50086317 -37.59357522 46.92487488 -42.18589783 38.44511414 C-45 33.20608009 -45 33.20608009 -45 31 C-43.86304688 30.39414062 -42.72609375 29.78828125 -41.5546875 29.1640625 C-26.28792371 20.92509399 -13.04599184 11.39898954 0 0 Z " fill="#7FCC29" transform="translate(586,396)"/>
<path d="M0 0 C2.10819296 4.21638592 2.24901015 6.06594876 2.24609566 10.67667007 C2.24840335 11.34988143 2.25071103 12.02309279 2.25308865 12.71670449 C2.25840159 14.98280482 2.24939396 17.24862354 2.24050903 19.51470947 C2.24138084 21.15158332 2.24313135 22.78845689 2.24568737 24.42532897 C2.25016986 28.93135036 2.24214483 33.43727709 2.23213124 37.94328642 C2.22351203 42.79943055 2.22641582 47.65556913 2.22793579 52.51171875 C2.22898561 60.92799397 2.22269887 69.34423824 2.21146011 77.76050568 C2.19522122 89.92908305 2.18999876 102.09764542 2.18748413 114.26623246 C2.1831045 134.00790044 2.16978811 153.74955192 2.15087891 173.49121094 C2.13252705 192.6708976 2.11836715 211.85057977 2.10986328 231.03027344 C2.10933783 232.21207279 2.10881239 233.39387215 2.10827102 234.6114836 C2.10566098 240.54009325 2.10313356 246.46870294 2.10064721 252.39731264 C2.07990635 301.59821984 2.04467352 350.79910911 2 400 C0.87366769 399.04558237 -0.25111702 398.08933817 -1.37524414 397.13232422 C-2.00177383 396.6000119 -2.62830353 396.06769958 -3.27381897 395.51925659 C-5.1748813 393.84608245 -6.83216888 392.08272088 -8.4375 390.125 C-8.93121094 389.52945312 -9.42492187 388.93390625 -9.93359375 388.3203125 C-10.28550781 387.88460938 -10.63742187 387.44890625 -11 387 C-6.37866085 388.77743813 -4.93994379 391.06005621 -1 395 C-0.67 264.65 -0.34 134.3 0 0 Z " fill="#6FB44A" transform="translate(680,34)"/>
<path d="M0 0 C112.2 0 224.4 0 340 0 C340 0.66 340 1.32 340 2 C228.79 2 117.58 2 3 2 C2.67 2.99 2.34 3.98 2 5 C1.34 3.35 0.68 1.7 0 0 Z " fill="#79C74A" transform="translate(165,0)"/>
<path d="M0 0 C3.26763979 1.6338199 3.75800313 5.16124274 4.9375 8.4375 C5.20546387 9.16670654 5.47342773 9.89591309 5.74951172 10.6472168 C7.42593385 15.25916544 8.93853466 19.89137375 10.27734375 24.61328125 C11.42057078 28.38902026 12.83196038 32.06254721 14.23046875 35.75 C15 38 15 38 15 40 C14.34 40 13.68 40 13 40 C9.57823161 30.39317946 6.22437648 20.77516082 3.078125 11.07421875 C2.11769503 8.0952364 2.11769503 8.0952364 0.859375 5.83203125 C0 4 0 4 0 0 Z " fill="#5F923A" transform="translate(579,587)"/>
<path d="M0 0 C0.66 0.33 1.32 0.66 2 1 C-5.92 8.92 -13.84 16.84 -22 25 C-22 21.47049413 -21.54599546 21.14054753 -19.21875 18.671875 C-18.62723145 18.03967041 -18.03571289 17.40746582 -17.42626953 16.75610352 C-16.79060059 16.09408936 -16.15493164 15.4320752 -15.5 14.75 C-14.86304199 14.07702881 -14.22608398 13.40405762 -13.56982422 12.71069336 C-9.26951367 8.20875453 -4.87193673 3.88847124 0 0 Z " fill="#6CA833" transform="translate(357,140)"/>
<path d="M0 0 C0.99 0.33 1.98 0.66 3 1 C3.94921875 3.94140625 3.94921875 3.94140625 4.6875 7.5625 C4.93886719 8.76003906 5.19023438 9.95757813 5.44921875 11.19140625 C5.63097656 12.11824219 5.81273437 13.04507813 6 14 C5.34 14 4.68 14 4 14 C3.32968281 12.0429132 2.66385317 10.08428887 2 8.125 C1.62875 7.03445313 1.2575 5.94390625 0.875 4.8203125 C0 2 0 2 0 0 Z " fill="#67A236" transform="translate(530,579)"/>
<path d="M0 0 C0.99 0.33 1.98 0.66 3 1 C3.94921875 2.92578125 3.94921875 2.92578125 4.6875 5.3125 C4.93886719 6.09238281 5.19023438 6.87226562 5.44921875 7.67578125 C6 10 6 10 6 14 C3.07413567 12.53706784 2.94053412 10.59729902 1.875 7.5625 C1.34519531 6.07943359 1.34519531 6.07943359 0.8046875 4.56640625 C0 2 0 2 0 0 Z " fill="#5F933A" transform="translate(537,601)"/>
<path d="M0 0 C0.99 0.33 1.98 0.66 3 1 C4.54613006 5.09724467 5.29227216 7.81857651 4 12 C3.3291288 10.3767313 2.66342971 8.75132422 2 7.125 C1.62875 6.22007812 1.2575 5.31515625 0.875 4.3828125 C0 2 0 2 0 0 Z " fill="#639A38" transform="translate(498,483)"/>
<path d="M0 0 C0.99 0.33 1.98 0.66 3 1 C3.33 3.97 3.66 6.94 4 10 C1.16625119 6.79663178 0.4794463 4.21912747 0 0 Z " fill="#5E8E3A" transform="translate(517,540)"/>
</svg>
